HIERARCHY
ROOT Hips
{
  OFFSET 196.326 95.9168 97.7182
  CHANNELS 6 Xposition Yposition Zposition Zrotation Xrotation Yrotation
  JOINT LeftUpLeg
  {
    OFFSET 8.64259 1.95398 -2.38835
    CHANNELS 3 Zrotation Xrotation Yrotation
    JOINT LeftLeg
    {
      OFFSET 43.7702 0 0
      CHANNELS 3 Zrotation Xrotation Yrotation
      JOINT LeftFoot
      {
        OFFSET 40.6238 0 0
        CHANNELS 3 Zrotation Xrotation Yrotation
        JOINT LeftToeBase
        {
          OFFSET 12.7242 0 0
          CHANNELS 3 Zrotation Xrotation Yrotation
          End Site
          {
            OFFSET 0 0 0
          }
        }
      }
    }
  }
  JOINT RightUpLeg
  {
    OFFSET -8.2249 1.95398 -2.59336
    CHANNELS 3 Zrotation Xrotation Yrotation
    JOINT RightLeg
    {
      OFFSET 43.5653 0 0
      CHANNELS 3 Zrotation Xrotation Yrotation
      JOINT RightFoot
      {
        OFFSET 40.6238 0 0
        CHANNELS 3 Zrotation Xrotation Yrotation
        JOINT RightToeBase
        {
          OFFSET 12.7242 0 0
          CHANNELS 3 Zrotation Xrotation Yrotation
          End Site
          {
            OFFSET 0 0 0
          }
        }
      }
    }
  }
  JOINT Spine
  {
    OFFSET 0.165834 0.87714 6.61349
    CHANNELS 3 Zrotation Xrotation Yrotation
    JOINT Spine1
    {
      OFFSET 7.38963 1.71661e-005 0
      CHANNELS 3 Zrotation Xrotation Yrotation
      JOINT Spine2
      {
        OFFSET 11.9445 1.14441e-005 0
        CHANNELS 3 Zrotation Xrotation Yrotation
        JOINT Spine3
        {
          OFFSET 14.7254 4.19617e-005 0
          CHANNELS 3 Zrotation Xrotation Yrotation
          JOINT Spine4
          {
            OFFSET 10.9679 0 0
            CHANNELS 3 Zrotation Xrotation Yrotation
            JOINT RightShoulder
            {
              OFFSET 2.46616 -1.6653 3.69651
              CHANNELS 3 Zrotation Xrotation Yrotation
              JOINT RightArm
              {
                OFFSET 13.0012 0 0
                CHANNELS 3 Zrotation Xrotation Yrotation
                JOINT RightForeArm
                {
                  OFFSET 28.7848 1.52588e-005 0
                  CHANNELS 3 Zrotation Xrotation Yrotation
                  JOINT RightHand
                  {
                    OFFSET 26.5688 1.52588e-005 0
                    CHANNELS 3 Zrotation Xrotation Yrotation
                    End Site
                    {
                      OFFSET 0 0 0
                    }
                  }
                }
              }
            }
            JOINT LeftShoulder
            {
              OFFSET 2.38034 -1.29275 -3.75231
              CHANNELS 3 Zrotation Xrotation Yrotation
              JOINT LeftArm
              {
                OFFSET 16.3182 6.10351e-005 0
                CHANNELS 3 Zrotation Xrotation Yrotation
                JOINT LeftForeArm
                {
                  OFFSET 27.0901 0 0
                  CHANNELS 3 Zrotation Xrotation Yrotation
                  JOINT LeftHand
                  {
                    OFFSET 24.5451 1.52588e-005 0
                    CHANNELS 3 Zrotation Xrotation Yrotation
                    End Site
                    {
                      OFFSET 0 0 0
                    }
                  }
                }
              }
            }
            JOINT Neck
            {
              OFFSET 5.0226 -0.0266342 0
              CHANNELS 3 Zrotation Xrotation Yrotation
              JOINT Head
              {
                OFFSET 6.69363 2.86102e-005 0
                CHANNELS 3 Zrotation Xrotation Yrotation
                End Site
                {
                  OFFSET 0 0 0
                }
              }
            }
          }
        }
      }
    }
  }
}
MOTION
Frames:	6
Frame Time:	0.0416667
-22.5473 93.6436 -82.535 54.7059 81.5911 124.936 -169.63 39.5398 89.8415 -84.1507 25.1677 -0.809726 37.3834 -12.5768 3.27438 37.4261 9.00393 -12.3296 178.995 23.1816 96.2601 -38.9116 8.78412 -0.153863 71.6592 -4.1061 -2.14122 36.2971 0.540013 21.1943 0.336573 7.45397 -90.1133 11.9752 0.615976 -0.289404 0.30441 0.602645 -0.316243 -22.2325 0.67449 -0.0908989 -2.21985 0.674497 -0.0908955 80.0757 -47.3409 -116.858 24.6932 -9.94017 -2.35502 -6.38336 -3.88452 -65.0505 -17.9099 -0.932603 1.00128 -106.073 -41.49 51.2245 -31.3989 10.4426 11.8968 -2.39431 7.77058 -15.803 18.7682 2.3682 8.68258 23.1577 1.66357 -0.410149 -5.13817 1.79536 5.19662 
-21.0555 100.951 -94.8416 69.1488 80.5272 106.504 -161.753 47.9671 82.4391 -77.8774 21.4995 -2.39626 44.3786 -8.471 6.89848 42.6412 13.4763 -13.6912 177.932 10.6718 89.998 -25.7315 2.66232 -1.08438 46.7434 1.36925 1.74728 36.8498 0.664307 21.7288 0.824816 7.48435 -89.3576 11.899 1.94274 1.07232 0.22913 1.98805 0.985756 -22.3106 1.53067 1.60665 -2.29796 1.53067 1.60665 81.5795 -45.1702 -115.45 25.2369 -8.90014 -4.04151 -11.1845 -0.712496 -82.2869 -18.7451 -1.11357 1.89877 -101.104 -40.0749 58.2226 -33.0121 7.94271 24.6418 -1.79435 5.40288 -14.8021 14.8819 1.62495 6.8645 18.666 0.23033 -0.945299 -2.66831 0.629472 3.47794 
-20.3683 105.781 -106.901 71.262 76.0456 104.917 -159.411 50.7666 81.3856 -63.4232 24.3256 -5.5798 46.9341 -7.52074 7.04776 50.2094 19.1358 -17.4176 178.844 8.96678 89.9646 -19.4005 0.401611 -1.64978 39.9445 2.53131 2.8429 31.4779 -0.570457 18.5458 1.23588 7.40604 -89.2864 12.0494 2.79397 1.11793 0.381049 2.84045 0.993796 -22.1682 2.32882 1.9062 -2.15557 2.32882 1.9062 83.7337 -40.7229 -113.815 24.3712 -9.54462 -6.69025 -18.4343 4.82485 -94.5245 -12.9217 -0.94494 3.41659 -99.1395 -37.7649 60.3181 -36.6355 4.96588 35.1949 -1.40807 1.7937 -13.4772 12.1325 1.08045 4.8121 19.9458 0.922903 1.13095 -4.01592 0.576897 1.65388 
-19.4149 106.932 -119.409 72.0961 73.792 104.554 -162.503 47.8219 83.5308 -46.2091 20.0368 -7.19758 50.992 -4.72613 7.48796 47.4555 18.008 -11.7122 179.54 6.7755 90.5392 -6.85271 6.26113 -1.48081 44.0362 1.07523 1.36543 29.711 -1.1157 21.3393 1.31419 7.35514 -89.2532 12.1508 2.96559 1.16234 0.482888 3.01388 1.03058 -22.0685 2.47916 2.0002 -2.05585 2.47916 2.0002 84.0652 -39.773 -113.655 19.66 -9.86914 -8.50638 -18.107 8.59176 -104.373 -14.0073 -0.933816 2.6987 -97.4531 -34.6293 61.7124 -41.5021 3.81039 42.4424 -2.50001 0.51371 -11.1779 10.9649 0.913451 4.21311 20.4231 1.71531 1.95961 -5.28956 1.03793 0.313998 
-18.6853 103.308 -132.166 75.0794 73.8015 103.281 -168.599 44.7025 87.0265 -32.5945 15.0548 -5.71728 57.3293 0.675727 10.2944 47.958 18.5835 -11.1098 177.709 6.39065 91.0672 -7.94884 6.51844 1.22795 46.8063 0.996361 1.11539 35.5481 0.307003 22.6695 1.27474 7.42852 -89.4781 12.0099 2.78063 0.737102 0.341809 2.81037 0.613909 -22.2109 2.43049 1.53911 -2.19828 2.4305 1.53911 84.2017 -41.1257 -112.874 13.9964 -7.48821 -9.96158 -15.3509 11.9343 -110.657 -12.8522 -0.910398 3.10902 -97.0888 -33.5967 61.8655 -42.7698 2.35192 46.3036 -2.18092 2.34396 -9.32427 8.13839 0.741145 4.64805 20.1251 2.55852 3.22324 -6.33824 1.45865 -0.00508597 
-17.5573 96.612 -144.283 84.3915 74.2134 94.2761 -172.962 41.6581 89.0003 -21.5056 11.7613 -2.94212 61.2599 4.89556 12.2041 50.3482 21.5387 -7.84033 178.389 3.72595 92.7431 -24.6421 7.93211 -1.98498 66.5486 -3.62486 -1.77696 44.5579 2.47547 19.5994 1.27293 7.73424 -89.478 11.3981 2.77646 0.760209 -0.270062 2.80724 0.637178 -22.8226 2.41959 1.55989 -2.80994 2.41959 1.55989 84.1551 -42.0452 -112.583 11.9852 -6.78195 -12.0376 -16.3445 10.357 -111.394 -20.5471 -1.41018 3.10823 -96.8452 -34.9811 62.9191 -39.4412 2.64354 46.7315 -1.73734 3.22987 -8.097 7.51637 0.710038 5.02538 19.4569 2.65002 3.66513 -5.03447 1.41684 -0.857886 
